<?xml version="1.0" encoding="UTF-8" standalone="no"?>
<svg
   width="64"
   height="64"
   preserveAspectRatio="xMaxYMin"
   version="1.1"
   viewBox="0 0 64 64"
   id="svg1"
   xmlns="http://www.w3.org/2000/svg"
   xmlns:svg="http://www.w3.org/2000/svg">
  <defs
     id="defs1" />
  <path
     d="m 47.835997,16.207973 v -1.166 h 0.132 q 0.792,0 1.254,-0.418 0.484,-0.418 1.034,-1.122 l 3.85,-5.0159995 -3.63,-5.654 q -0.374,-0.572 -0.792,-0.858 -0.396,-0.308 -1.1,-0.308 h -0.286 V 0.49997348 h 7.282 V 1.6659735 h -0.11 q -0.748,0 -1.012,0.22 -0.242,0.198 -0.242,0.462 0,0.396 0.572,1.254 l 1.826,2.728 1.914,-2.684 q 0.198,-0.286 0.396,-0.66 0.198,-0.374 0.198,-0.682 0,-0.396 -0.352,-0.506 -0.33,-0.132 -0.858,-0.132 h -0.088 V 0.49997348 h 5.148 V 1.6659735 h -0.198 q -0.638,0 -1.078,0.352 -0.44,0.352 -1.1,1.232 l -3.19,4.356 4.048,6.2699995 q 0.462,0.66 0.902,0.924 0.44,0.242 0.858,0.242 h 0.286 v 1.166 h -7.26 v -1.166 h 0.11 q 1.32,0 1.32,-0.726 0,-0.242 -0.132,-0.528 -0.11,-0.286 -0.594,-0.99 l -2.024,-3.0579995 -2.376,3.2119995 q -0.198,0.264 -0.396,0.638 -0.176,0.352 -0.176,0.704 0,0.374 0.286,0.572 0.308,0.176 1.034,0.176 h 0.088 v 1.166 z"
     id="val"
     style="font-weight:bold;font-size:22px;font-family:serif;text-anchor:end;fill:#ffffff;stroke:#000000"
     aria-label="X" />
</svg>
