<?xml version="1.0" encoding="UTF-8" standalone="no"?>
<svg
   width="64"
   height="64"
   preserveAspectRatio="xMaxYMin"
   version="1.1"
   viewBox="0 0 64 64"
   id="svg1"
   xmlns="http://www.w3.org/2000/svg"
   xmlns:svg="http://www.w3.org/2000/svg">
  <defs
     id="defs1" />
  <path
     d="m 46.593323,14.807693 v -1.068189 h 0.725562 q 0.443399,0 0.786025,-0.241854 0.362781,-0.262008 0.362781,-0.927107 V 2.7149931 q 0,-0.725562 -0.362781,-0.967416 Q 47.762284,1.4855687 47.318885,1.4855687 H 46.593323 V 0.4173802 h 6.973457 v 1.0681885 h -0.765871 q -0.483708,0 -0.80618,0.2620084 -0.322472,0.2620085 -0.322472,0.9875705 v 9.8152414 q 0,0.665098 0.322472,0.927107 0.342626,0.262008 0.80618,0.262008 h 0.765871 v 1.068189 z m 8.081935,0 v -1.068189 h 0.725562 q 0.443399,0 0.786025,-0.241854 0.362781,-0.262008 0.362781,-0.927107 V 2.7149931 q 0,-0.725562 -0.362781,-0.967416 Q 55.844219,1.4855687 55.40082,1.4855687 H 54.675258 V 0.4173802 h 6.973457 v 1.0681885 h -0.765871 q -0.483708,0 -0.80618,0.2620084 -0.322472,0.2620085 -0.322472,0.9875705 v 9.8152414 q 0,0.665098 0.322472,0.927107 0.342626,0.262008 0.80618,0.262008 h 0.765871 v 1.068189 z m 8.081935,0 v -1.068189 h 0.725562 q 0.443399,0 0.786025,-0.241854 0.362781,-0.262008 0.362781,-0.927107 V 2.7149931 q 0,-0.725562 -0.362781,-0.967416 Q 63.926154,1.4855687 63.482755,1.4855687 H 62.757193 V 0.4173802 h 6.973457 v 1.0681885 h -0.765871 q -0.483708,0 -0.80618,0.2620084 -0.322472,0.2620085 -0.322472,0.9875705 v 9.8152414 q 0,0.665098 0.322472,0.927107 0.342626,0.262008 0.80618,0.262008 h 0.765871 v 1.068189 z"
     id="val"
     style="font-weight:bold;font-size:20.1545px;font-family:serif;text-anchor:end;fill:#ffffff;stroke:#000000;stroke-width:0.916115"
     transform="scale(0.91124826,1.0973958)"
     aria-label="III" />
</svg>
