<?xml version="1.0" encoding="UTF-8" standalone="no"?>
<svg
   width="64"
   height="64"
   preserveAspectRatio="xMaxYMin"
   version="1.1"
   viewBox="0 0 64 64"
   id="svg1"
   xmlns="http://www.w3.org/2000/svg"
   xmlns:svg="http://www.w3.org/2000/svg">
  <defs
     id="defs1" />
  <path
     d="M 45.008928,15.319998 V 14.21596 h 0.749913 q 0.458279,0 0.812405,-0.249971 0.374956,-0.270801 0.374956,-0.958221 V 2.8214577 q 0,-0.7499124 -0.374956,-0.9998832 Q 46.21712,1.5507728 45.758841,1.5507728 H 45.008928 V 0.44673505 H 52.21642 V 1.5507728 h -0.791575 q -0.499941,0 -0.833236,0.2708017 -0.333294,0.2708017 -0.333294,1.0207141 V 12.986937 q 0,0.68742 0.333294,0.958221 0.354126,0.270802 0.833236,0.270802 h 0.791575 v 1.104038 z M 54.549461,2.550656 Q 54.361983,1.9465599 54.028688,1.7590818 53.695394,1.5507728 53.257945,1.5507728 H 52.778834 V 0.44673505 h 6.770043 V 1.5507728 h -0.791574 q -0.874898,0 -0.874898,0.6874197 0,0.208309 0.06249,0.4582798 0.08332,0.2499708 0.166647,0.4999416 l 2.08309,6.3534245 q 0.187478,0.5207726 0.333294,1.2706846 0.166647,0.729082 0.270802,1.291516 0.104154,-0.520772 0.270802,-1.208192 0.187478,-0.68742 0.395787,-1.2915159 L 63.590071,3.383892 q 0.104155,-0.3541253 0.187479,-0.6457579 0.08332,-0.3124635 0.08332,-0.5207725 0,-0.6665888 -0.895729,-0.6665888 H 62.069416 V 0.44673505 h 5.249387 V 1.5507728 h -0.583266 q -0.520772,0 -0.812405,0.2916326 -0.270801,0.2708017 -0.604096,1.2290231 L 61.069533,15.319998 h -2.08309 z"
     id="val"
     style="font-weight:bold;font-size:20.8309px;font-family:serif;text-anchor:end;fill:#ffffff;stroke:#000000;stroke-width:0.946859"
     transform="scale(0.94366704,1.0596958)"
     aria-label="IV" />
</svg>
