<?xml version="1.0" encoding="UTF-8" standalone="no"?>
<svg
   width="64"
   height="64"
   preserveAspectRatio="xMaxYMin"
   version="1.1"
   viewBox="0 0 64 64"
   id="svg1"
   xmlns="http://www.w3.org/2000/svg"
   xmlns:svg="http://www.w3.org/2000/svg">
  <defs
     id="defs1" />
  <path
     d="m 50.013959,2.7219735 q -0.198,-0.638 -0.55,-0.836 -0.352,-0.22 -0.814,-0.22 h -0.506 V 0.49997348 h 7.15 V 1.6659735 h -0.836 q -0.924,0 -0.924,0.726 0,0.22 0.066,0.484 0.088,0.264 0.176,0.528 l 2.2,6.7099995 q 0.198,0.55 0.352,1.342 0.176,0.77 0.286,1.364 0.11,-0.55 0.286,-1.276 0.198,-0.726 0.418,-1.364 l 2.244,-6.5779995 q 0.11,-0.374 0.198,-0.682 0.088,-0.33 0.088,-0.55 0,-0.704 -0.946,-0.704 h -0.946 V 0.49997348 h 5.544 V 1.6659735 h -0.616 q -0.55,0 -0.858,0.308 -0.286,0.286 -0.638,1.298 l -4.488,12.9359995 h -2.2 z"
     id="val"
     style="font-weight:bold;font-size:22px;font-family:serif;text-anchor:end;fill:#ffffff;stroke:#000000"
     aria-label="V" />
</svg>
