<?xml version="1.0" encoding="UTF-8" standalone="no"?>
<svg
   width="64"
   height="64"
   preserveAspectRatio="xMaxYMin"
   version="1.1"
   viewBox="0 0 64 64"
   id="svg1"
   xmlns="http://www.w3.org/2000/svg"
   xmlns:svg="http://www.w3.org/2000/svg">
  <defs
     id="defs1" />
  <path
     d="M 46.799667,2.5493191 Q 46.612272,1.9454899 46.279124,1.7580946 45.945977,1.5498776 45.508721,1.5498776 H 45.029822 V 0.44632752 h 6.767053 V 1.5498776 H 51.00565 q -0.874511,0 -0.874511,0.687116 0,0.208217 0.06247,0.4580774 0.08329,0.2498604 0.166573,0.4997208 l 2.08217,6.3506182 q 0.187396,0.520543 0.333147,1.270124 0.166574,0.728759 0.270683,1.290945 0.104108,-0.520542 0.270682,-1.207659 0.187395,-0.687116 0.395612,-1.2909449 l 2.123813,-6.225688 q 0.104109,-0.3539689 0.187396,-0.6454727 0.08329,-0.3123255 0.08329,-0.5205425 0,-0.6662943 -0.895333,-0.6662943 H 54.3163 V 0.44632752 h 5.247068 V 1.5498776 h -0.583007 q -0.520543,0 -0.812046,0.2915038 -0.270683,0.270682 -0.60383,1.2284802 L 53.316859,15.313021 h -2.08217 z M 60.146375,15.313021 v -1.10355 h 0.749582 q 0.458077,0 0.812046,-0.249861 0.37479,-0.270682 0.37479,-0.957798 V 2.8200012 q 0,-0.7495811 -0.37479,-0.9994415 Q 61.354034,1.5498776 60.895957,1.5498776 H 60.146375 V 0.44632752 h 7.204308 V 1.5498776 h -0.791224 q -0.499721,0 -0.832868,0.2706821 -0.333147,0.2706821 -0.333147,1.0202632 V 12.98099 q 0,0.687116 0.333147,0.957799 0.353969,0.270682 0.832868,0.270682 h 0.791224 v 1.10355 z"
     id="val"
     style="font-weight:bold;font-size:20.8217px;font-family:serif;text-anchor:end;fill:#ffffff;stroke:#000000;stroke-width:0.94644"
     transform="scale(0.94322387,1.0601937)"
     aria-label="VI" />
</svg>
