<?xml version="1.0" encoding="UTF-8" standalone="no"?>
<svg
   width="64"
   height="64"
   preserveAspectRatio="xMaxYMin"
   version="1.1"
   viewBox="0 0 64 64"
   id="svg1"
   xmlns="http://www.w3.org/2000/svg"
   xmlns:svg="http://www.w3.org/2000/svg">
  <defs
     id="defs1" />
  <path
     d="M 54.27812,2.1341563 Q 54.117074,1.6152332 53.830772,1.4541881 53.54447,1.2752491 53.168698,1.2752491 h -0.41156 V 0.32687245 h 5.815518 V 1.2752491 h -0.679969 q -0.751543,0 -0.751543,0.5904987 0,0.178939 0.05368,0.3936658 0.07158,0.2147268 0.143151,0.4294536 l 1.78939,5.4576395 q 0.161046,0.4473475 0.286303,1.0915279 0.143151,0.6262865 0.232621,1.1094214 0.08947,-0.4473471 0.23262,-1.0378458 0.161045,-0.5904987 0.339984,-1.1094218 l 1.825178,-5.3502761 q 0.08947,-0.3041963 0.161045,-0.5547109 0.07158,-0.2684085 0.07158,-0.4473475 0,-0.5726048 -0.769438,-0.5726048 H 60.737817 V 0.32687245 H 65.24708 V 1.2752491 h -0.501029 q -0.447348,0 -0.697862,0.2505146 -0.232621,0.2326207 -0.518923,1.0557401 L 59.87891,13.103117 H 58.08952 Z M 65.748109,13.103117 V 12.15474 h 0.64418 q 0.393666,0 0.697862,-0.214727 0.322091,-0.23262 0.322091,-0.823119 V 2.366777 q 0,-0.6441804 -0.322091,-0.8589072 -0.304196,-0.2326207 -0.697862,-0.2326207 h -0.64418 V 0.32687245 h 6.191289 V 1.2752491 H 71.25943 q -0.429454,0 -0.715756,0.2326207 -0.286302,0.2326207 -0.286302,0.8768011 V 11.099 q 0,0.590499 0.286302,0.82312 0.304196,0.23262 0.715756,0.23262 h 0.679968 v 0.948377 z m 7.175437,0 V 12.15474 h 0.64418 q 0.393666,0 0.697862,-0.214727 0.322091,-0.23262 0.322091,-0.823119 V 2.366777 q 0,-0.6441804 -0.322091,-0.8589072 -0.304196,-0.2326207 -0.697862,-0.2326207 h -0.64418 V 0.32687245 h 6.191289 V 1.2752491 h -0.679968 q -0.429454,0 -0.715756,0.2326207 -0.286302,0.2326207 -0.286302,0.8768011 V 11.099 q 0,0.590499 0.286302,0.82312 0.304196,0.23262 0.715756,0.23262 h 0.679968 v 0.948377 z"
     id="val"
     style="font-weight:bold;font-size:17.8939px;font-family:serif;text-anchor:end;fill:#ffffff;stroke:#000000;stroke-width:0.813361"
     transform="scale(0.80381017,1.2440748)"
     aria-label="VII" />
</svg>
