<?xml version="1.0" encoding="UTF-8" standalone="no"?>
<svg
   width="64"
   height="64"
   preserveAspectRatio="xMaxYMin"
   version="1.1"
   viewBox="0 0 64 64"
   id="svg1"
   xmlns="http://www.w3.org/2000/svg"
   xmlns:svg="http://www.w3.org/2000/svg">
  <defs
     id="defs1" />
  <path
     d="M 60.840448,1.8681343 Q 60.696971,1.4058192 60.4419,1.2623421 60.18683,1.1029231 59.85205,1.1029231 H 59.485386 V 0.25800236 h 5.181118 V 1.1029231 h -0.605792 q -0.66956,0 -0.66956,0.5260827 0,0.159419 0.04783,0.3507218 0.06377,0.1913028 0.127535,0.3826056 l 1.59419,4.8622796 q 0.143477,0.3985475 0.25507,0.9724559 0.127536,0.5579665 0.207245,0.9883978 0.07971,-0.3985475 0.207245,-0.9246302 0.143477,-0.5260827 0.302896,-0.9883978 l 1.626074,-4.7666282 q 0.07971,-0.2710123 0.143477,-0.4941989 0.06377,-0.2391285 0.06377,-0.3985475 0,-0.5101408 -0.685501,-0.5101408 H 66.595474 V 0.25800236 h 4.017359 V 1.1029231 H 70.16646 q -0.398548,0 -0.621735,0.2231866 -0.207244,0.2072447 -0.462315,0.9405721 l -3.252147,9.3738372 h -1.59419 z m 10.218757,9.7723847 v -0.844921 h 0.573908 q 0.350722,0 0.621734,-0.191302 0.286955,-0.207245 0.286955,-0.7333278 V 2.075379 q 0,-0.5739084 -0.286955,-0.7652112 Q 71.983835,1.1029231 71.633113,1.1029231 H 71.059205 V 0.25800236 h 5.515897 V 1.1029231 H 75.96931 q -0.382605,0 -0.637676,0.2072447 -0.25507,0.2072447 -0.25507,0.7811531 v 7.7637054 q 0,0.5260827 0.25507,0.7333277 0.271012,0.207244 0.637676,0.207244 h 0.605792 v 0.844921 z m 6.392687,0 V 10.795598 H 78.0258 q 0.350722,0 0.621734,-0.191302 0.286954,-0.207245 0.286954,-0.7333278 V 2.075379 q 0,-0.5739084 -0.286954,-0.7652112 Q 78.376522,1.1029231 78.0258,1.1029231 H 77.451892 V 0.25800236 h 5.515897 V 1.1029231 h -0.605792 q -0.382606,0 -0.637676,0.2072447 -0.25507,0.2072447 -0.25507,0.7811531 v 7.7637054 q 0,0.5260827 0.25507,0.7333277 0.271012,0.207244 0.637676,0.207244 h 0.605792 v 0.844921 z m 6.392687,0 v -0.844921 h 0.573908 q 0.350722,0 0.621734,-0.191302 0.286954,-0.207245 0.286954,-0.7333278 V 2.075379 q 0,-0.5739084 -0.286954,-0.7652112 Q 84.769209,1.1029231 84.418487,1.1029231 H 83.844579 V 0.25800236 h 5.515897 V 1.1029231 h -0.605792 q -0.382606,0 -0.637676,0.2072447 -0.255071,0.2072447 -0.255071,0.7811531 v 7.7637054 q 0,0.5260827 0.255071,0.7333277 0.271012,0.207244 0.637676,0.207244 h 0.605792 v 0.844921 z"
     id="val"
     style="font-weight:bold;font-size:15.9419px;font-family:serif;text-anchor:end;fill:#ffffff;stroke:#000000;stroke-width:0.72463"
     transform="scale(0.71214568,1.4042071)"
     aria-label="VIII" />
</svg>
